<svg width="131" height="16" viewBox="0 0 131 16" fill="none" xmlns="http://www.w3.org/2000/svg">
<path d="M18.0932 15.4285H14.5396L12.9165 12.666L9.04659 6.07531L5.17665 12.666L3.55363 15.4198H0L1.61211 12.666L9.04659 0L16.4811 12.666L18.0932 15.4285Z" fill="#F3F5F7"/>
<path d="M33.6167 12.6661V15.4111H24.6224C23.7682 15.4129 22.9223 15.242 22.1356 14.9088C21.0505 14.4715 20.1438 13.6816 19.5614 12.6661C19.1756 12.0111 18.9722 11.2645 18.9724 10.5041V0.0153809H22.1356V10.788C22.2817 11.7686 23.1783 12.546 24.317 12.6748L33.6167 12.6661Z" fill="#F3F5F7"/>
<path d="M50.7893 12.6661V15.4111H41.795C40.94 15.4131 40.0934 15.2422 39.306 14.9088C38.2211 14.4721 37.315 13.682 36.734 12.6661C36.3475 12.0113 36.1434 11.2647 36.1428 10.5041V0.0153809H39.306V10.788C39.4543 11.7685 40.3487 12.546 41.4874 12.6748L50.7893 12.6661Z" fill="#F3F5F7"/>
<path d="M68.4724 7.72199C68.4724 11.976 64.4999 15.4264 59.5981 15.4264C54.6964 15.4264 50.7261 11.976 50.7261 7.72199C50.7261 3.46797 54.6985 0.0175781 59.5981 0.0175781C64.4977 0.0175781 68.4724 3.46797 68.4724 7.72199ZM65.3093 7.72199C65.3093 4.98788 62.7482 2.7626 59.5981 2.7626C56.4481 2.7626 53.8827 4.98788 53.8827 7.72199C53.8827 10.4561 56.4437 12.6792 59.5916 12.6792C62.7395 12.6792 65.3093 10.4561 65.3093 7.72199Z" fill="#F3F5F7"/>
<path d="M88.1318 0.0153809V15.4286H84.9665V5.61681L81.8557 7.69359L79.2619 9.44063L76.6681 7.69359L73.5574 5.61681V15.4286H70.3833V0.0153809L73.5574 2.13803L79.2619 5.95529L84.9665 2.13803L88.1318 0.0153809Z" fill="#F3F5F7"/>
<path d="M107.778 15.4285H104.225L102.602 12.666L98.7317 6.06658L94.8617 12.666L93.2365 15.4198H89.6851L91.2972 12.666L98.7317 0L106.164 12.666L107.778 15.4285Z" fill="#F3F5F7"/>
<path d="M125.302 4.17111C125.302 5.85482 124.152 7.30923 122.497 7.96C122.055 8.13931 121.59 8.25334 121.116 8.29848C121.07 8.3029 121.024 8.3029 120.978 8.29848V8.32687H112.471V15.4155H109.307V0.0109799H120.505C121.748 -0.00990964 122.957 0.420637 123.908 1.22299C124.338 1.58588 124.684 2.03687 124.925 2.54548C125.165 3.05409 125.294 3.60846 125.302 4.17111ZM122.139 4.17111C122.133 3.97722 122.086 3.78672 122.003 3.61159C121.92 3.43646 121.801 3.28048 121.655 3.15346C121.335 2.88816 120.931 2.74569 120.516 2.75165H112.481V5.59058H120.516C120.74 5.59364 120.963 5.55052 121.17 5.46392C121.445 5.3737 121.685 5.20132 121.858 4.9701C122.031 4.73888 122.129 4.45998 122.139 4.17111Z" fill="#F3F5F7"/>
<path d="M127.835 15.4242V0.0175781H131V15.4242H127.835Z" fill="#F3F5F7"/>
</svg>
